<svg id="Слой_1" data-name="Слой 1" width="69" height="69" xmlns="http://www.w3.org/2000/svg" viewBox="0 0 68 67.04"><defs><style>.cls-1,.cls-3{fill:none;stroke:#000;stroke-linecap:round;stroke-miterlimit:10;}.cls-1{stroke-width:2px;}.cls-2{fill:#294564;}</style></defs><path class="cls-1" d="M31.53,5.22s10,9.11,21.43,9.85a1.57,1.57,0,0,1,1.46,1.59c-.09,5.47-.65,24.05-4.37,31.6-4.57,9.26-8.11,10.38-18.52,10.33h0c-10,0-14-1-18.52-10.24-3.72-7.54-4.29-26.13-4.37-31.6a1.55,1.55,0,0,1,1.45-1.58c11.46-.75,21.44-9.95,21.44-9.95"/><path class="cls-2" d="M24.81,32.49l-2,8.14a.39.39,0,0,0,.18.44l9,5.49a1.34,1.34,0,0,0,1.68-.24L67.11,9.46a.24.24,0,0,0-.33-.35L33.39,36.5a1.14,1.14,0,0,1-1.34.07l-6.62-4.33A.41.41,0,0,0,24.81,32.49Z"/><path class="cls-3" d="M31.16,13.18s-7.47,5.18-15.06,6.57c-2.91.2.71,21.21.71,21.21"/></svg>