<svg id="Слой_1" data-name="Слой 1" width="69" height="69" xmlns="http://www.w3.org/2000/svg" viewBox="0 0 68 67.04"><defs><style>.cls-1,.cls-2{fill:none;stroke:#000;}.cls-1{stroke-miterlimit:10;stroke-width:2px;}.cls-2{stroke-linecap:round;stroke-linejoin:round;}.cls-3{fill:#294564;}</style></defs><circle class="cls-1" cx="32.04" cy="33.18" r="20.9"/><path class="cls-2" d="M4.28,28.49A23.16,23.16,0,0,1,27.44,5.33"/><polyline class="cls-2" points="22.11 9.04 28.54 5.33 22.11 1.62"/><path class="cls-2" d="M59.29,38.57A23.16,23.16,0,0,1,36.13,61.73"/><polyline class="cls-2" points="41.64 58.02 35.22 61.73 41.64 65.44"/><path class="cls-3" d="M25.49,28.37l-1.8,7.36a.37.37,0,0,0,.17.4l8.17,5a1.21,1.21,0,0,0,1.52-.22L63.73,7.55a.22.22,0,0,0-.3-.31L33.24,32a1,1,0,0,1-1.21.07l-6-3.91A.36.36,0,0,0,25.49,28.37Z"/></svg>