<svg id="Слой_1" data-name="Слой 1" width="69" height="69" xmlns="http://www.w3.org/2000/svg" viewBox="0 0 68 67.04"><defs><style>.cls-1,.cls-2{fill:none;stroke:#000;stroke-linecap:round;stroke-miterlimit:10;}.cls-1{stroke-width:2px;}.cls-3{fill:#294564;}</style></defs><path class="cls-1" d="M23,37.22a16.82,16.82,0,0,1,.11,3.33c-.16,2.91-.22,11.37,4.29,13.84,5.48,3,11.09,5.07,17.13-1s5.48-7.94,2-13.79-6.1-4.77-3.37-8.85c2.58-3.87,9.41-12.62,8.57-15.1s-6.46,2.78-21.49,20.84c0,0-5.9-12.81-12.65-10.69C11.16,27.78,21.44,26.36,23,37.22Z"/><path class="cls-2" d="M41,39.16c0,.3,7.9,6.84,0,11.81"/><path class="cls-3" d="M30.29,2.29l2.14,6.58a.28.28,0,0,0,.27.2h6.92a.29.29,0,0,1,.17.52l-5.6,4.07a.3.3,0,0,0-.1.33l2.14,6.58a.3.3,0,0,1-.45.33l-5.6-4.07a.27.27,0,0,0-.34,0l-5.6,4.07a.3.3,0,0,1-.45-.33L25.93,14a.3.3,0,0,0-.1-.33l-5.6-4.07a.29.29,0,0,1,.17-.52h6.92a.29.29,0,0,0,.28-.2l2.14-6.58A.29.29,0,0,1,30.29,2.29Z"/><path class="cls-2" d="M57.32,42.8a21.95,21.95,0,0,1-43.89,0"/></svg>