<svg id="Слой_1" data-name="Слой 1" width="69" height="69" xmlns="http://www.w3.org/2000/svg" viewBox="0 0 68 67.04"><defs><style>.cls-1,.cls-3{fill:none;stroke:#000;stroke-linecap:round;stroke-linejoin:round;}.cls-2{fill:#294564;}.cls-3{stroke-width:2px;}</style></defs><path class="cls-1" d="M5.79,36.65A29.2,29.2,0,0,1,35,7.45"/><path class="cls-1" d="M63.27,33.66a29.2,29.2,0,0,1-29.2,29.2"/><path class="cls-2" d="M58.45,4.71,56.89,3.4a.51.51,0,0,0-.58,0l-7.46,4.2a.55.55,0,0,0-.1.92c1.07.71,2.84,2.16,2,3.56-1.24,2-13.56,15.14-13.56,15.14l3.18,2.65S50.9,15.2,52.61,13.64c1.22-1.12,3,.36,3.85,1.29a.55.55,0,0,0,.89-.27l2.8-8.09A.52.52,0,0,0,60,6l-1.57-1.3"/><path class="cls-3" d="M14.7,59.66l-4.13-3.29s14.14-18.68,15.2-19.64,6-3.3,2.46-9.62l5.35-2.3,4.62,3.5-.05,0,5.13,3.85-.77,5.76c-7-1.66-7.94,3.72-8.58,5s-14.74,20-14.74,20l-4.49-3.2"/><line class="cls-1" x1="28.71" y1="44.36" x2="18.25" y2="58.33"/></svg>