<svg id="Слой_1" data-name="Слой 1" width="69" height="69" xmlns="http://www.w3.org/2000/svg" xmlns:xlink="http://www.w3.org/1999/xlink" viewBox="0 0 68 67.04"><defs><style>.cls-1,.cls-2,.cls-3,.cls-4{fill:none;stroke-miterlimit:10;}.cls-1{stroke-width:2px;stroke:url(#Безымянный_градиент_7);}.cls-2{stroke:url(#Безымянный_градиент_7-2);}.cls-3{stroke:url(#Безымянный_градиент_7-3);}.cls-4{stroke:url(#Безымянный_градиент_7-4);}.cls-5{fill:#294564;}</style><linearGradient id="Безымянный_градиент_7" x1="14.12" y1="28.88" x2="63.64" y2="28.88" gradientUnits="userSpaceOnUse"><stop offset="0"/><stop offset="1"/></linearGradient><linearGradient id="Безымянный_градиент_7-2" x1="5.87" y1="41.03" x2="15.72" y2="41.03" xlink:href="#Безымянный_градиент_7"/><linearGradient id="Безымянный_градиент_7-3" x1="21.77" y1="57.19" x2="31.63" y2="57.19" xlink:href="#Безымянный_градиент_7"/><linearGradient id="Безымянный_градиент_7-4" x1="5.88" y1="54.43" x2="21.6" y2="54.43" xlink:href="#Безымянный_градиент_7"/></defs><path class="cls-1" d="M15.7,24.52l5.18-4.92a1.83,1.83,0,0,1,1.27-.51H33.87a1.84,1.84,0,0,0,1.35-.58C37.51,16,46.44,6.6,49.46,5.77,52.28,5,57.53,5.65,59.92,6a1.82,1.82,0,0,1,1.52,1.44c.59,2.83,1.88,9.73.76,11.76C61,21.43,52.43,29.36,50.07,31.53a1.87,1.87,0,0,0-.6,1.38L49.58,45a1.8,1.8,0,0,1-.53,1.31L43.62,51.8a1.85,1.85,0,0,1-2.94-.42l-3-5.48a1.82,1.82,0,0,0-1.74-1c-3.57.21-14.12-.22-13.35-12.85a1.84,1.84,0,0,0-1-1.73l-5.5-2.87A1.84,1.84,0,0,1,15.7,24.52Z"/><line class="cls-2" x1="6.23" y1="45.72" x2="15.37" y2="36.33"/><line class="cls-3" x1="22.13" y1="61.88" x2="31.27" y2="52.49"/><line class="cls-4" x1="6.23" y1="61.94" x2="21.24" y2="46.93"/><circle class="cls-5" cx="50.75" cy="17.03" r="5.15"/></svg>