<svg id="Слой_1" data-name="Слой 1" xmlns="http://www.w3.org/2000/svg" viewBox="0 0 1945 400.6"><defs><style>.cls-1,.cls-10,.cls-3,.cls-4,.cls-8{fill:none;}.cls-1,.cls-10,.cls-12,.cls-2,.cls-3,.cls-4,.cls-5,.cls-6,.cls-7,.cls-8,.cls-9{stroke:#000;}.cls-1,.cls-12,.cls-2,.cls-3,.cls-4,.cls-6,.cls-9{stroke-miterlimit:10;}.cls-1,.cls-12{stroke-width:2px;}.cls-11,.cls-12,.cls-2,.cls-5,.cls-6,.cls-7,.cls-9{fill:#fff;}.cls-3,.cls-9{stroke-width:0.5px;}.cls-10,.cls-5,.cls-7,.cls-8{stroke-linejoin:round;}.cls-6,.cls-7,.cls-8{stroke-width:0.75px;}</style></defs><line class="cls-1" x1="1945" y1="310.03" x2="1711.7" y2="310.03"/><line class="cls-1" x1="1611.35" y1="310.03" x2="1527.97" y2="310.03"/><line class="cls-1" x1="1490.6" y1="310.03" x2="1437.02" y2="310.03"/><line class="cls-1" x1="1425.28" y1="310.03" x2="1341.2" y2="310.03"/><line class="cls-1" x1="1674.36" y1="310.03" x2="1658.75" y2="310.03"/><line class="cls-1" y1="309.96" x2="1266.36" y2="309.96"/><rect class="cls-2" x="696.13" y="100.65" width="69.24" height="111" rx="12"/><rect class="cls-2" x="776.9" y="100.65" width="69.24" height="111" rx="12"/><rect class="cls-2" x="778.69" y="103.51" width="65.67" height="105.27" rx="12"/><rect class="cls-2" x="697.91" y="103.51" width="65.67" height="105.27" rx="12"/><rect class="cls-2" x="380.3" y="237.27" width="106.33" height="93.32" rx="12"/><line class="cls-3" x1="390.76" y1="262.84" x2="474.83" y2="262.84"/><line class="cls-3" x1="390.76" y1="287.2" x2="474.83" y2="287.2"/><line class="cls-3" x1="390.76" y1="311.28" x2="474.83" y2="311.28"/><line class="cls-3" x1="432.79" y1="252.86" x2="435.94" y2="254.51"/><line class="cls-3" x1="432.79" y1="278.41" x2="435.94" y2="280.06"/><line class="cls-3" x1="432.79" y1="303.96" x2="435.94" y2="305.61"/><circle class="cls-2" cx="970.15" cy="86.03" r="36.27"/><line class="cls-3" x1="966.82" y1="86.03" x2="973.48" y2="89.52"/><line class="cls-3" x1="970.15" y1="61.6" x2="970.15" y2="83.15"/><line class="cls-3" x1="968.11" y1="89.52" x2="959.67" y2="97.42"/><rect class="cls-2" x="490.52" y="116.32" width="123.02" height="214.69"/><polyline class="cls-4" points="490.51 116.32 498.26 123.88 607.15 123.87 613.53 116.32"/><line class="cls-4" x1="498.62" y1="331.01" x2="498.62" y2="123.88"/><polygon class="cls-5" points="490.51 173.19 613.53 173.19 606.87 171.13 498.62 171.13 490.51 173.19"/><path class="cls-6" d="M572.24,320.35v8.47a1,1,0,0,1-1,1H522.63a1,1,0,0,1-1-1v-8.47a1,1,0,0,1,1-1h48.63A1,1,0,0,1,572.24,320.35Z"/><path class="cls-6" d="M573.05,315.14v3.24a1,1,0,0,1-1,1H523.44a1,1,0,0,1-1-1v-3.24a1,1,0,0,1,1-1h-3.6a1,1,0,0,1-1-1v-3.25a1,1,0,0,1,1-1h4a.88.88,0,0,1-.11-.45v-3.25a1,1,0,0,1,1-1h1.77a.93.93,0,0,0,.75.37h36.36a1,1,0,0,1,.22.62v3.25a.89.89,0,0,1-.12.45h4.7a1,1,0,0,1,1,1v3.25a1,1,0,0,1-1,1h3.61A1,1,0,0,1,573.05,315.14Z"/><path class="cls-6" d="M566.41,298.06v5.57a1,1,0,0,1-1,1H527.29a1,1,0,0,1-1-1v-5.57a1,1,0,0,1,1-1h38.13A1,1,0,0,1,566.41,298.06Z"/><path class="cls-6" d="M526.7,287.82l-13.5,42.07a1,1,0,0,1-1.24.63l-2.71-.87a.91.91,0,0,1-.58-.5l-.24.74a1,1,0,0,1-1.24.63l-2.71-.87a1,1,0,0,1-.64-1.24l9.15-28.5a1,1,0,0,1,1.24-.64l2.71.87a1,1,0,0,1,.59.51l4.58-14.3a1,1,0,0,1,1.25-.64l2.7.87A1,1,0,0,1,526.7,287.82Z"/><path class="cls-6" d="M601.44,172.06l-1,.29a1,1,0,0,1-1.14-.46.9.9,0,0,1-.32.17l-1,.29a1,1,0,0,1-1.16-.5,1.12,1.12,0,0,1-.37.21l-1,.29a1,1,0,0,1-1.22-.65l-.29-1a.94.94,0,0,1-.56.45l-3.9,1.16a1,1,0,0,1-1.22-.65l-7.83-26.15a1,1,0,0,1,.67-1.23l3.9-1.17a1,1,0,0,1,1.22.67l.29,1a1,1,0,0,1,.56-.45l1-.29a1,1,0,0,1,1.16.5,1,1,0,0,1,.37-.21l1-.29a1,1,0,0,1,1.23.65l3,10a.85.85,0,0,1,.3-.15l1-.31a1,1,0,0,1,1.22.67l4.76,15.89A1,1,0,0,1,601.44,172.06Z"/><path class="cls-6" d="M597.31,138.58l-.14,4.08a1,1,0,0,1-1,.94l-27.26-1a1,1,0,0,1-1-1l.15-4.07a.92.92,0,0,1,.33-.69,1,1,0,0,1-.64-1l0-1.05a1,1,0,0,1,1-.94l16.58.58a1,1,0,0,1,1,1l0,1.05a.92.92,0,0,1-.28.64l10.33.37A1,1,0,0,1,597.31,138.58Z"/><path class="cls-6" d="M580.08,144.12V171.4a1,1,0,0,1-1,1H575a1,1,0,0,0-2,0H569a1,1,0,0,1-1-1V144.12a1,1,0,0,1,1-1H573a1,1,0,0,0,2,0h4.07A1,1,0,0,1,580.08,144.12Z"/><path class="cls-6" d="M553.77,144.12V171.4a1,1,0,0,1-1,1h-4.07a1,1,0,1,0-2,0h-1.81a1,1,0,0,1-1-1V144.12a1,1,0,0,1,1-1h1.81a1,1,0,1,0,2,0h4.07A1,1,0,0,1,553.77,144.12Z"/><rect class="cls-6" x="540.03" y="139.01" width="3.78" height="33.38" rx="1.1"/><path class="cls-6" d="M523.53,135.79v1.8a1,1,0,0,1-1,1H496.47a1,1,0,0,1-1-1v-1.8a1,1,0,0,1,.41-.8,1,1,0,0,1-.41-.8v-3.34a1,1,0,0,1,1-1h22.11a1,1,0,0,1,1,1v3.34a.91.91,0,0,1-.22.61h3.19A1,1,0,0,1,523.53,135.79Z"/><path class="cls-6" d="M532.54,145.33V171.4a1,1,0,0,1-1,1h-1.81a1,1,0,1,0-2,0H526a1,1,0,1,0-2,0H522.2a1,1,0,0,1-1-1V145.33a1,1,0,0,1,1-1H524a1,1,0,0,0,2,0h1.8a1,1,0,0,0,2,0h1.81A1,1,0,0,1,532.54,145.33Z"/><rect class="cls-6" x="532.54" y="139.01" width="7.49" height="33.38" rx="1.1"/><path class="cls-6" d="M520.74,140v31.4a1,1,0,0,1-1,1h-5.51a1,1,0,1,0-2,0h-5.52a1,1,0,0,0-1.46,0h-7.88a1,1,0,0,1-1-1V140a1,1,0,0,1,1-1h7.88a1,1,0,0,0,1.46,0h5.52a1,1,0,1,0,2,0h5.51A1,1,0,0,1,520.74,140Z"/><path class="cls-6" d="M567,140v31.4a1,1,0,0,1-1,1h-5.87a1,1,0,0,1-1-1V140a1,1,0,0,1,1-1H566A1,1,0,0,1,567,140Z"/><path class="cls-6" d="M559.44,140v31.4a1,1,0,0,1-1,1h-3.25a1,1,0,0,1-1-1V140a1,1,0,0,1,1-1h3.25A1,1,0,0,1,559.44,140Z"/><path class="cls-6" d="M534.55,234.06c-.08-.17-.15-.34-.21-.5A.81.81,0,0,1,534.55,234.06Z"/><circle class="cls-6" cx="545.11" cy="233.27" r="3.29"/><circle class="cls-6" cx="555.47" cy="233.53" r="3.44"/><line class="cls-4" x1="607.11" y1="331.29" x2="607.11" y2="124.15"/><polygon class="cls-5" points="490.51 238.25 613.53 238.25 606.87 234.05 499.38 234.05 490.51 238.25"/><path class="cls-6" d="M588,189.08l.22.84v45.25a1,1,0,0,1-1,1h-2.6a1,1,0,0,1-1-.78,1,1,0,0,1-1,.78h-5.51a1,1,0,0,0-1.7,0h-8.47a1,1,0,0,1-1-1V186.55a1,1,0,0,1,1-1h8.47a1,1,0,0,0,1.7,0h5.51a1,1,0,0,1,1,.78,1,1,0,0,1,1-.78h2.6a1,1,0,0,1,1,1v1.65A1,1,0,0,0,588,189.08Z"/><path class="cls-6" d="M603.72,236.27l-2.52.64a1,1,0,0,1-1.19-.71l-11.76-46.28V188.2a.87.87,0,0,1,.49-.32l2.52-.64a1,1,0,0,1,1.2.71l12,47.12A1,1,0,0,1,603.72,236.27Z"/><path class="cls-6" d="M588.25,188.2v1.72l-.22-.84A1,1,0,0,1,588.25,188.2Z"/><path class="cls-6" d="M588.25,188.2v1.72l-.22-.84A1,1,0,0,1,588.25,188.2Z"/><path class="cls-7" d="M534.55,195.35a.15.15,0,0,1-.06.11l-.08.06c-.67.42-3.74.76-7.43.76a40.26,40.26,0,0,1-7.47-.8s-.06,0-.07-.08a.11.11,0,0,1,0-.05c0-.52,3.38-.93,7.55-.93S534.55,194.83,534.55,195.35Z"/><path class="cls-7" d="M534.34,233.56c.06.16.13.33.21.5,0,1.16-3.38,2.09-7.57,2.09s-7.55-.94-7.55-2.09a.56.56,0,0,1,.11-.35l.08-.12c2.81-3.84,1.76-6.4,1.76-6.4a12,12,0,0,1-3.25-8.45,11.66,11.66,0,0,1,4.16-9.26l.1-.08c3.55-2.52-2.1-12.58-2.87-13.91.55.44,3.68.79,7.46.79s6.76-.34,7.43-.76c-.82,1.44-6.34,11.38-2.83,13.88l.11.08a11.69,11.69,0,0,1,4.16,9.26,12.11,12.11,0,0,1-3,8.23S532.44,229.11,534.34,233.56Z"/><path class="cls-8" d="M527,196.28s.87-7.12-3.49-9.11"/><path class="cls-8" d="M531.38,187.89s-3.35,3.69-3,8.37"/><path class="cls-8" d="M518.78,187.21s-3.58,0-1-3.71.07,4.63,1.65,5.77,5.7-1.75,3.53-4.54a1.52,1.52,0,0,0-.58-.51c-1.6-.69-1.85,6.1-4.6,6.28-3.06.21-2.44-7.24,2.81-7.95s3.13,3.7,3.13,3.7"/><path class="cls-8" d="M533.25,190.3s-3.58,0-1-3.71.07,4.63,1.65,5.77,5.7-1.75,3.54-4.54a1.59,1.59,0,0,0-.58-.51c-1.61-.69-1.86,6.1-4.61,6.28-3,.21-2.43-7.24,2.82-8s3.13,3.7,3.13,3.7"/><path class="cls-6" d="M543.92,226.53s.41-4,2.8-4.22,8.91-.11,10.12,0,2.6,4.63,2.6,4.63l2.57,1.39a2.5,2.5,0,0,1,1.35,2.19v2.71l-4.09.06s-.36-3.32-3.09-3.2c-4.2.17-4.19,3.14-4.19,3.14l-5.27-.1s.33-2.79-2.17-2.89-2,2.78-2,2.78l-3.69.11s-2-3.71,0-4.64S543.6,228.06,543.92,226.53Z"/><path class="cls-2" d="M646.32,298.5s-3.34-54.91,11.61-54.91h230C903,243.59,899,298.5,899,298.5s18.6,0,17.33,22.26c-.48,8.3-3.39,21-19.8,20.54-19.17-.52-242.68,1.06-255,.44s-12.4-17.56-12.72-24C627.9,301.25,643.22,301,646.32,298.5Z"/><path class="cls-2" d="M646.32,274.14s-12,1.28-13.11,12.55-1,19.32-1,19.32"/><path class="cls-2" d="M899.27,274.14s12.29,1.28,13.39,12.55,1,20.36,1,20.36"/><line class="cls-4" x1="628.73" y1="317.74" x2="916.35" y2="317.74"/><line class="cls-4" x1="646.32" y1="298.5" x2="898.96" y2="298.5"/><line class="cls-4" x1="723.05" y1="252.07" x2="719.21" y2="289.71"/><line class="cls-4" x1="826.88" y1="252.07" x2="830.73" y2="289.71"/><path class="cls-2" d="M645.11,277.71s24.72-.36,31-6.68c0,0,2.2,26.65,9.07,33,0,0-23.08-2.47-33.52,4.39C651.7,308.39,651.42,284.94,645.11,277.71Z"/><path class="cls-2" d="M901.72,277.71s-24.72-.36-31-6.68c0,0-2.2,26.65-9.07,33,0,0,23.08-2.47,33.52,4.39C895.13,308.39,895.4,284.94,901.72,277.71Z"/><path class="cls-2" d="M673.05,289.71s19.78-.82,23.35-4.94c0,0-.55,15.66,3.3,20.05,0,0-16.49-1.1-22.81,3.57C676.89,308.39,677.17,291.91,673.05,289.71Z"/><path class="cls-2" d="M874.94,291.63s-19.79-.82-23.36-4.94c0,0,.55,15.66-3.3,20.06,0,0,16.49-1.1,22.81,3.57C871.09,310.32,870.81,293.83,874.94,291.63Z"/><path class="cls-2" d="M1234.13,49.76c-1.67,51.21-4.16,135.75-3.07,155.86.46,8.55.66,16.5.66,23.91,0,.93,0,1.85,0,2.77H1077.85V43.77h156.48C1234.26,45.71,1234.2,47.71,1234.13,49.76Z"/><path class="cls-2" d="M1231.06,205.62c.46,8.55.66,16.5.66,23.91h-151.1V49.76h153.51C1232.46,101,1230,185.51,1231.06,205.62Z"/><rect class="cls-2" x="1028.54" y="0.5" width="298.33" height="7.83" rx="3.92"/><path class="cls-2" d="M1038.29,9.77s-5.28,166.51-3.88,195.85c3.88,81.77.79,91,.79,125,0,0,27.69,1.79,47.1-5.18s36.86,5,46.32,2.88c18-4.12-10.07-61.4-12.66-92.59s7.77-193.76,3.89-206.16a173.76,173.76,0,0,1-5.18-19.77Z"/><rect class="cls-9" x="1173.45" y="49.76" width="11.02" height="179.77"/><rect class="cls-9" x="1047.89" y="0.5" width="2.15" height="10.03" rx="0.76"/><rect class="cls-9" x="1066.26" y="0.5" width="2.11" height="10.03" rx="0.76"/><rect class="cls-9" x="1084.33" y="0.5" width="2.11" height="10.03" rx="0.76"/><rect class="cls-9" x="1099.95" y="0.5" width="2.29" height="10.03" rx="0.76"/><rect class="cls-9" x="1252.53" y="0.5" width="2.12" height="10.03" rx="0.76"/><rect class="cls-9" x="1268.5" y="0.5" width="1.96" height="10.03" rx="0.76"/><rect class="cls-9" x="1282.85" y="0.5" width="2.1" height="10.03" rx="0.76"/><rect class="cls-9" x="1299.38" y="0.5" width="1.85" height="10.03" rx="0.76"/><rect class="cls-9" x="1313.39" y="0.5" width="2.08" height="10.03" rx="0.76" transform="translate(2628.85 11.03) rotate(180)"/><rect class="cls-9" x="1113.5" y="0.5" width="2.06" height="10.03" rx="0.76"/><rect class="cls-9" x="1236.22" y="0.5" width="1.65" height="10.03" rx="0.82"/><path class="cls-4" d="M1338.4,310c-1.5,6.76-4.27,11.76-8.94,13.86a12.06,12.06,0,0,1-2.59.83c-10.79,2.17-19-6.29-41.18.69S1229,329,1229,329c-11.65-12.75,2.32-35.36,2.72-96.66,0-.92,0-1.84,0-2.77,0-7.41-.2-15.36-.66-23.91-1.09-20.11,1.4-104.65,3.07-155.86.07-2,.13-4,.2-6,.67-20.27,1.16-34,1.16-34h87.11s4.69,6.66,5.91,19.77c4.68,50.33,6.43,87.91,6.93,116.85.86,49.61-2,73.89-.11,93.59C1337.38,261.63,1342.37,292.06,1338.4,310Z"/><path class="cls-4" d="M1341.2,146.39V333.56h-11.74v-9.67c4.67-2.1,7.44-7.1,8.94-13.86,4-18-1-48.4-3.07-70-1.86-19.7,1-44,.11-93.59Z"/><rect class="cls-4" x="1425.28" y="146.39" width="11.74" height="187.17"/><rect class="cls-2" x="1341.2" y="170.64" width="84.07" height="6.85"/><rect class="cls-2" x="1341.2" y="233.13" width="84.08" height="6.85"/><rect class="cls-2" x="1341.2" y="297.83" width="84.08" height="6.84"/><path class="cls-2" d="M1394.16,160.33c0,5.7-6.8,10.31-15.2,10.31s-15.19-4.61-15.19-10.31c0-3.82,3.06-7.15,7.6-8.93v-6.26h14.74v6.09C1390.9,153,1394.16,156.38,1394.16,160.33Z"/><path class="cls-2" d="M1362.21,204.38h3.12a7.4,7.4,0,0,1,7.4,7.4v21.34a0,0,0,0,1,0,0H1354.8a0,0,0,0,1,0,0V211.79A7.4,7.4,0,0,1,1362.21,204.38Z"/><line class="cls-4" x1="1356.25" y1="212.52" x2="1370.67" y2="212.52"/><rect class="cls-2" x="1380.29" y="216.64" width="29.4" height="16.49"/><line class="cls-4" x1="1382.35" y1="221.31" x2="1406.66" y2="221.31"/><path class="cls-2" d="M1400.34,297.82h-25V286.65c0-4.21,9.76-9.12,9.76-9.42v-9.49c0-1.5,1.22-2.05,2.73-2.05,2.54,0,2.73,1.3,2.73,2.05v9.49c0,.3,9.77,5.21,9.77,9.42Z"/><ellipse class="cls-2" cx="1387.84" cy="265.89" rx="2.65" ry="0.33"/><path class="cls-2" d="M1367.65,289a8.23,8.23,0,1,1-16.42,0c0-4,5.88-8.9,5.88-9.13v-14c0-1.29,1-1.72,2.33-1.72,2,0,2.34,1.07,2.34,1.72v14C1361.78,280.14,1367.65,285,1367.65,289Z"/><rect class="cls-4" x="929.64" y="147.51" width="4.95" height="163.55"/><polygon class="cls-4" points="927.99 311.06 936.3 311.06 942.34 322.17 922.3 322.17 927.99 311.06"/><path class="cls-4" d="M927.09,168.72l-25.82-6.58,10.66-15.54a6.24,6.24,0,0,1,6.18-2.64l4.21.7a5.7,5.7,0,0,1,4.77,5.63Z"/><path class="cls-4" d="M932.11,147.51s-2.82-7-11.4-3.12"/><path class="cls-4" d="M934.72,199a26,26,0,0,1,1.44,6.61c.55,8.89-9.62,26.2-9.07,34.72s2.55,12.36,2.55,12.36"/><path class="cls-4" d="M934.58,152.09s-8.31,16.76-7.49,25.56a96,96,0,0,0,2.55,12.81"/><path class="cls-4" d="M934.58,259.59S926.7,288.23,927,295s-4.81,15.91-4.81,15.91"/><rect class="cls-2" x="1490.6" y="239.98" width="168.15" height="7.8"/><rect class="cls-4" x="1490.6" y="247.78" width="13.19" height="85.52"/><rect class="cls-4" x="1611.35" y="275.1" width="47.4" height="58.82"/><rect class="cls-2" x="1611.35" y="247.78" width="47.4" height="27.32"/><line class="cls-4" x1="1611.9" y1="302.9" x2="1659.3" y2="302.9"/><line class="cls-4" x1="1633.64" y1="266.32" x2="1637.56" y2="268.82"/><line class="cls-4" x1="1633.64" y1="296" x2="1637.56" y2="298.51"/><line class="cls-4" x1="1633.64" y1="325.66" x2="1637.56" y2="328.17"/><rect class="cls-2" x="1511.48" y="194.12" width="56.46" height="37.36"/><rect class="cls-2" x="1535.8" y="231.48" width="9.48" height="7.68"/><path class="cls-4" d="M1525.37,271.27h-19a2.59,2.59,0,0,0-2.59,2.59v56.85a2.59,2.59,0,0,0,2.59,2.59h19a2.6,2.6,0,0,0,2.6-2.59V273.86A2.6,2.6,0,0,0,1525.37,271.27Zm-9.56,13.36a1.51,1.51,0,1,1,1.51-1.51A1.51,1.51,0,0,1,1515.81,284.63Z"/><circle class="cls-2" cx="1515.81" cy="283.12" r="1.51"/><line class="cls-3" x1="1507.22" y1="287.48" x2="1524.39" y2="287.48"/><line class="cls-3" x1="1508.73" y1="320.59" x2="1523.16" y2="320.59"/><circle class="cls-3" cx="1515.81" cy="283.12" r="1.51"/><rect class="cls-4" x="1456.81" y="98.62" width="60.51" height="78.87" rx="12"/><path class="cls-2" d="M1645.28,184.05v23.3a1,1,0,0,1-1,1h-1.8a1,1,0,0,1-.82-.43,1,1,0,0,1-.81.43h-3.25a1,1,0,0,1-1-1v-23.3a1,1,0,0,1,1-1h3.25a1,1,0,0,1,.81.44,1,1,0,0,1,.82-.44h1.8A1,1,0,0,1,1645.28,184.05Z"/><path class="cls-2" d="M1649.06,190.86v16.49a1,1,0,0,1-1,1h-1.81a1,1,0,0,1-1-1V190.86a1,1,0,0,1,1-1h1.81A1,1,0,0,1,1649.06,190.86Z"/><path class="cls-2" d="M1636.63,186.22v21.13a1,1,0,0,1-1,1h-1a1,1,0,1,0-2,0h-.19a1,1,0,0,1-.79-.4,1,1,0,0,0,.19-.59V185.44a.93.93,0,0,1,.6-.21h.19a1,1,0,1,0,2,0h1A1,1,0,0,1,1636.63,186.22Z"/><path class="cls-2" d="M1631.86,185.44v21.91a1,1,0,0,1-.19.59.94.94,0,0,1-.2-.59V186.22A1,1,0,0,1,1631.86,185.44Z"/><path class="cls-2" d="M1631.86,185.44v21.91a1,1,0,0,1-.19.59.94.94,0,0,1-.2-.59V186.22A1,1,0,0,1,1631.86,185.44Z"/><path class="cls-2" d="M1631.86,184.88v.56a1,1,0,0,0-.39.78v21.13a.94.94,0,0,0,.2.59,1,1,0,0,1-.8.4h-3.28a1,1,0,1,0-2,0h-3.29a1,1,0,0,1-1-1V184.88a1,1,0,0,1,1-1h3.29a1,1,0,1,0,2,0h3.28A1,1,0,0,1,1631.86,184.88Z"/><rect class="cls-4" x="1616.3" y="146.39" width="42.45" height="93.59"/><rect class="cls-4" x="1618.57" y="149.9" width="37.92" height="90.08"/><line class="cls-4" x1="1618.57" y1="174.65" x2="1656.48" y2="174.65"/><line class="cls-4" x1="1618.57" y1="208.62" x2="1656.48" y2="208.62"/><polygon class="cls-2" points="1623 239.98 1625.47 231.48 1626.6 233.25 1626.6 239.98 1623 239.98"/><rect class="cls-2" x="1623.65" y="224.16" width="9.94" height="14.01" rx="4.97" transform="translate(35.38 640.34) rotate(-22.48)"/><polygon class="cls-10" points="1634.54 174.75 1625.19 174.75 1625.98 163.27 1633.45 163.27 1634.54 174.75"/><path class="cls-4" d="M440.92,210.07h20.95c1.49,0,2.71.92,2.71,2.05l-4.23,23.09c0,1.14-1.21,2.06-2.71,2.06l-12.77-.11c-1.5,0-2.72-.92-2.72-2l-3.95-23C438.2,211,439.42,210.07,440.92,210.07Z"/><polygon class="cls-2" points="438.2 233.66 463.78 233.66 461.85 237.27 440.56 237.27 438.2 233.66"/><path class="cls-11" d="M451.91,210.07s2.06-16.28-2.17-28.54"/><path d="M450.91,209.94c1.25-9.39,1.46-19.21-1.17-28.41a48.68,48.68,0,0,1,2,6.94,82.77,82.77,0,0,1,1.18,21.72l-2-.25Z"/><path d="M461.86,188.36c-1.79-1.55-7-6.18-8.87-2.93-.86,2-.78,4.2-1,6.38h-.1a12.92,12.92,0,0,1-.46-4.56c.49-4.66,4.12-4.43,7.18-2a24.77,24.77,0,0,1,3.33,3.06l-.08.07Z"/><path d="M461.86,184.94c-1.79-1.55-7-6.19-8.87-2.94-.86,2-.78,4.2-1,6.39h-.1a12.92,12.92,0,0,1-.46-4.56c.49-4.66,4.12-4.43,7.18-2a25.52,25.52,0,0,1,3.33,3.07l-.08.07Z"/><path d="M436.21,170.66c9.22-.69,15.61,7.61,15.09,16.36h-.1c-.28-1-.5-2-.71-3-2-7.84-5.91-12.83-14.28-13.37Z"/><path d="M461.49,174.48a8.31,8.31,0,0,0-8.11,4.13c-1.1,2-1.3,4.7-1.56,7,0,.82-.07,1.64-.17,2.47h-.1c-1.31-4.8-.08-11.12,5-13.16a9.48,9.48,0,0,1,5-.53v.1Z"/><path d="M450,182.47c-2.45-6.24-5.94-7.61-9-.79-1.91,4.44-1.92,9.39-1,14.1l-.09,0a17.4,17.4,0,0,1-1.45-7.25c-.34-3.73,4.07-15.41,9-10.95a12.14,12.14,0,0,1,2.66,4.83l-.09,0Z"/><path d="M451,186.91c-1.09-2.19-3.7-4.76-6.16-2.92a9.6,9.6,0,0,0-3.64,6.68,13.77,13.77,0,0,0,.46,5.27l-.09.05a9.16,9.16,0,0,1,1.79-11.67,4.32,4.32,0,0,1,4-1.4c1.88.56,3,2.29,3.77,4l-.09,0Z"/><path d="M445.12,190.28c.07-2.88,0-5.72,1.13-8.47a2,2,0,0,1,.85-1c1.36-.6,2.36,1.16,2.83,2.09a15.33,15.33,0,0,1,1.23,4.11l-.09,0c-1.08-1.73-1.81-3.78-3.12-5.24-.21-.18-.33-.23-.47-.18-1.18,1-1.3,3-1.68,4.48-.26,1.37-.45,2.77-.58,4.17Z"/><path d="M436.2,162c9.86-.44,14.55,10.82,15,19.16.19,4.88.09,5.07-.69.09C449,172.8,446.31,162.64,436.2,162Z"/><path class="cls-12" d="M1310.44,305.86l10.23-68.73-6.33-1.32-.31,2.56s-12-3.23-15-3.69-14.24.46-14.24.46l.32-2.11-5.68-.65-8.42,67.84-29.13,4.47L1227.19,307v2l.83,63.85,3.38,1.69,3.36-.92-.09-16.63-.21-39.57,6.18,1.53h0l29,7.2,0,16.78v4l-.1,39.81,3.87,1.53,3-1.07V369.43L1306.58,356l.61,14.24h3.37l2-1.07s-.4-11.19-.85-24.29Zm-34,58.95v-3.18l3-.8-1.3-35.11L1304,318l2.43,33.2Z"/><polyline class="cls-1" points="1271.21 300.32 1274.08 301.11 1277.03 300.21 1304.04 306.76 1303.98 307.56 1307.8 308.48 1307.8 309.86 1272.89 319.97 1227.48 307.76"/><line class="cls-4" x1="1282.84" y1="233.2" x2="1274.08" y2="301.11"/><path class="cls-4" d="M1317.6,236.88s-10.06,63.66-9.79,72"/><line class="cls-1" x1="1281.68" y1="241.69" x2="1313.24" y2="245.76"/><line class="cls-1" x1="1313.93" y1="238.85" x2="1304.04" y2="308.06"/><line class="cls-1" x1="1284.21" y1="242.02" x2="1282.24" y2="254.6"/><path class="cls-1" d="M1280,254.09a37,37,0,0,0,10,.51c5.74-.46,10.33,0,13.66,1.49a54.2,54.2,0,0,0,7.45,2.56"/><path class="cls-1" d="M1277.57,273.66a37,37,0,0,0,10,.51c5.74-.45,10.34,0,13.67,1.5a55.09,55.09,0,0,0,7.44,2.55"/><line class="cls-1" x1="1279.48" y1="261.49" x2="1310.2" y2="265.5"/><line class="cls-1" x1="1276.74" y1="281.22" x2="1307.46" y2="285.23"/><line class="cls-1" x1="1281.68" y1="261.49" x2="1280" y2="273.66"/><line class="cls-1" x1="1279.48" y1="281.57" x2="1277.03" y2="300.65"/><polyline class="cls-1" points="1278.18 325.72 1303.98 318.03 1306.41 351.23 1276.49 364.81 1276.49 362.75 1276.49 361.63 1276.49 326.22 1278.18 325.72"/><path class="cls-4" d="M1307.81,310.3s.76,28.43,1.38,40.8,1.37,19.53,1.37,19.53"/><polyline class="cls-1" points="1278.18 325.72 1279.48 360.83 1276.49 361.63"/><polyline class="cls-1" points="1234.68 356.92 1269.63 346.92 1269.64 343.32 1235.04 352.9"/><path class="cls-12" d="M977,280.61a1.3,1.3,0,0,1-2-.53c-1.56-6.21-5.16-18-4.83-20.68.55-4.57,10.93-8.18,32.75-9.56,0,0,4.9,0,5.74,7.49,1.09,9.68,1.53,12.4-4,14.47C1000,273.57,981.71,277.24,977,280.61Z"/><path class="cls-12" d="M969.69,259.93s-3.22-.61-3,1.08,10,51.29,10,51.29l-14.4,58.49h4L982,323.48l6-.92,30.32,6,2-.76v-1.69s-34.3-7.2-36.14-10.1-.15-4-.15-4l-9-31.91"/><polygon class="cls-12" points="998.95 273.47 1001.56 302.63 1006.06 300.05 1002.5 272.5 998.95 273.47"/><polygon class="cls-12" points="998.95 324.72 996.1 348.9 998.95 348.9 1003.69 325.65 998.95 324.72"/><path class="cls-12" d="M1025.58,326.69l1.3,62.32s-3.06,2.91-4.13,0-2.45-62.32-2.45-62.32S1023.36,327.61,1025.58,326.69Z"/><polygon class="cls-12" points="1043.11 318.12 1050.92 366.2 1053.68 366.2 1050.31 312.76 1043.11 318.12"/><path class="cls-12" d="M984,312l15.33-8.09,6.72-3.85s42.1,2,46.39,5.21-2.14,7.5-2.14,7.5-17.44,12.17-24.73,13.93a13.74,13.74,0,0,1-5.28,0s-31.2-7.84-34.69-9.73C982.54,315.3,982.84,313.64,984,312Z"/><path class="cls-12" d="M280.74,228.81l-5.35.85s9.71,63.77,9.57,71.8-6.48,52.93-6.48,52.93l3,1.69,3-.85S291.86,306,291,299.06,280.74,228.81,280.74,228.81Z"/><polygon class="cls-12" points="304.53 226.99 309.03 226 318.75 290.19 311.64 342.14 308.33 342.99 306.07 342.28 312.97 290.62 304.53 226.99"/><polygon class="cls-12" points="313.85 326.67 312.16 327.46 311.64 330.95 354.85 343.83 354.71 339.08 313.85 326.67"/><polygon class="cls-12" points="287.21 300.26 287.21 308.35 328 320.18 358.62 306.77 358.11 300.26 327.33 313 287.21 300.26"/><polygon class="cls-12" points="324.44 312.41 324.44 377.09 329.27 378.36 331.27 376.45 331.27 311.99 327.33 313 324.44 312.41"/><polygon class="cls-12" points="355.22 301.46 354.71 358.72 358.62 360.09 360.63 358.19 361.18 298.59 355.22 301.46"/><path class="cls-12" d="M315.51,289.91s43.92,5.77,45.61,7.18-.28,1.69-9.15,6.2S329.59,313,327.33,313s-40.12-10.7-40.12-12.74C287.21,299.41,294.25,296.53,315.51,289.91Z"/><polygon class="cls-12" points="286.51 338.55 284.5 339.29 284.5 342.99 324.44 360.62 324.44 354.49 286.51 338.55"/><path class="cls-12" d="M281.33,231.07a3.43,3.43,0,0,0,2.33-2.11l17.95-1.8a26.48,26.48,0,0,0,4.32,1.16c.95,0,1.69,5.49,1.69,5.49L282,237.19Z"/><polygon class="cls-12" points="288.09 276.35 288.62 280.16 312.87 274.07 312.43 270.6 288.09 276.35"/><polygon class="cls-2" points="286.04 236.66 292.53 275.3 294.48 274.84 288.09 236.38 286.04 236.66"/><polygon class="cls-2" points="291.78 235.9 297.75 274.07 299.84 273.57 293.89 235.62 291.78 235.9"/><polygon class="cls-2" points="297.15 235.19 303.15 272.79 305.38 272.27 299.26 234.91 297.15 235.19"/><polygon class="cls-12" points="1067.76 283.22 1071.08 372.14 1074.15 373.16 1077.85 372.14 1076.19 285.23 1067.76 283.22"/><polygon class="cls-12" points="1140.79 295.03 1141.63 398.63 1145.64 399.54 1147.93 398.44 1149.46 295.03 1140.79 295.03"/><polygon class="cls-12" points="1208.95 285.23 1208.27 371.29 1211.41 372.3 1214.4 369.67 1217.13 283.22 1208.95 285.23"/><polygon class="cls-12" points="1072.81 284.42 1073.72 293.16 1140.79 305.07 1140.79 295.03 1072.81 284.42"/><polygon class="cls-12" points="1149.46 305.07 1212.03 293.24 1212.44 283.22 1149.46 295.03 1149.46 305.07"/><polygon class="cls-12" points="1140.79 272.05 1065.72 280.73 1065.72 282.52 1145.89 295.99 1219.36 283.22 1219.36 281.31 1140.79 272.05"/><polygon class="cls-2" points="1721.46 314.74 1720.31 328.72 1672.41 328.72 1671.2 314.74 1721.46 314.74"/><line class="cls-4" x1="1671.94" y1="318.67" x2="1720.72" y2="318.73"/><rect class="cls-4" x="1674.36" y="299.99" width="37.34" height="14.75"/><rect class="cls-2" x="1674.36" y="296.45" width="37.34" height="3.54"/><rect class="cls-2" x="1674.36" y="314.74" width="37.34" height="0.78"/><rect class="cls-2" x="1673.28" y="295.23" width="39.65" height="4.76"/><rect class="cls-2" x="1672.92" y="282.12" width="26.9" height="12.7"/><rect class="cls-2" x="1672.41" y="280.99" width="28.07" height="5.02"/><path d="M741.57,130.16a10.29,10.29,0,0,0-10.32-2.66,12,12,0,0,0-7.9,7.12,13.78,13.78,0,0,0,.08,10.82c1.79,4,5.64,6.36,9.44,8.12,4.11,1.9,8.51,3.29,12,6.33,3.64,3.19,5.28,7.79,2.72,12.22-2.43,4.21-7.11,7.06-11.56,8.72a30.25,30.25,0,0,1-14.14,1.72c-5-.6-12.21-2.5-11.4-8.91.75-5.91,6.67-8.63,11.5-10.75.74-.33.1-1.4-.63-1.08-4.2,1.85-9,4-11.09,8.35-1.83,3.74-1.39,8.25,2.22,10.71s9.15,3.22,13.58,3.13a31.31,31.31,0,0,0,13.89-3.57c3.91-2.06,7.85-5.11,9.5-9.34s.12-8.32-2.9-11.33c-3.31-3.29-7.63-4.9-11.81-6.73s-8.78-4.25-10.47-8.83a12.49,12.49,0,0,1,3-13.11c3.62-3.39,10-3.89,13.46-.05.54.6,1.42-.28.88-.88Z"/><path d="M823.45,130.16a10.29,10.29,0,0,0-10.32-2.66,11.93,11.93,0,0,0-7.9,7.12,13.78,13.78,0,0,0,.07,10.82c1.79,4,5.64,6.36,9.45,8.12,4.11,1.9,8.51,3.29,12,6.33,3.63,3.19,5.27,7.79,2.72,12.22-2.43,4.21-7.12,7.06-11.56,8.72a30.27,30.27,0,0,1-14.14,1.72c-5-.6-12.22-2.5-11.4-8.91.75-5.91,6.67-8.63,11.5-10.75.73-.33.1-1.4-.63-1.08-4.21,1.85-9,4-11.1,8.35-1.82,3.74-1.38,8.25,2.23,10.71s9.15,3.22,13.57,3.13a31.32,31.32,0,0,0,13.9-3.57c3.91-2.06,7.84-5.11,9.5-9.34s.11-8.32-2.91-11.33c-3.3-3.29-7.62-4.9-11.81-6.73s-8.77-4.25-10.46-8.83a12.47,12.47,0,0,1,3-13.11c3.61-3.39,10-3.89,13.46-.05.54.6,1.42-.28.88-.88Z"/></svg>