<svg width="128" height="134" viewBox="0 0 128 134" fill="none" xmlns="http://www.w3.org/2000/svg">
<path d="M121.748 59.3174L97.7395 71.7627C96.2993 72.5089 94.6885 72.8627 93.0687 72.7888C91.4488 72.7149 89.8768 72.2158 88.5103 71.3415L65.7461 56.7357C64.3785 55.8578 63.2667 54.6336 62.5232 53.1871C61.7796 51.7405 61.4308 50.1228 61.512 48.4978L62.7524 21.4468C62.8284 19.8246 63.3287 18.2509 64.2032 16.8835C65.0777 15.516 66.2956 14.4028 67.7349 13.6553L91.7479 1.20586C93.1907 0.45572 94.8055 0.0996834 96.4294 0.173621C98.0534 0.247559 99.6292 0.74886 100.998 1.62702L123.762 16.2328C125.129 17.1157 126.24 18.3442 126.982 19.7942C127.724 21.2442 128.071 22.8645 127.988 24.4918L126.727 51.5386C126.649 53.1581 126.148 54.7289 125.275 56.0939C124.401 57.459 123.185 58.5705 121.748 59.3174Z" fill="#FFEFA6"/>
<path d="M85.3778 120.334L61.3691 132.779C59.9262 133.529 58.3115 133.885 56.6875 133.811C55.0636 133.737 53.4877 133.236 52.1188 132.358L29.3546 117.752C27.9879 116.877 26.8756 115.657 26.13 114.215C25.3843 112.772 25.0318 111.158 25.1079 109.535L26.3483 82.484C26.4245 80.8587 26.9266 79.2821 27.8042 77.9129C28.6819 76.5437 29.904 75.4301 31.3476 74.6841L55.3606 62.2389C56.8008 61.4927 58.4116 61.1388 60.0315 61.2127C61.6513 61.2866 63.2233 61.7858 64.5898 62.6601L87.354 77.2659C88.7186 78.1426 89.8293 79.3632 90.5746 80.8053C91.3199 82.2474 91.6738 83.8604 91.6007 85.4827L90.3393 112.534C90.2668 114.155 89.7704 115.729 88.8996 117.098C88.0289 118.467 86.8144 119.583 85.3778 120.334Z" fill="#8699C3"/>
<path d="M52.3416 58.1856L32.3988 68.5376C30.9586 69.2839 29.3478 69.6377 27.7279 69.5638C26.1081 69.4899 24.5361 68.9908 23.1695 68.1165L4.24849 55.9871C2.88172 55.1126 1.76942 53.8924 1.02381 52.4498C0.278199 51.0071 -0.0743425 49.393 0.00175818 47.7703L1.03191 25.3014C1.10718 23.6786 1.60714 22.104 2.48166 20.7357C3.35618 19.3675 4.57451 18.2536 6.01445 17.5058L25.9572 7.17054C27.3975 6.42433 29.0083 6.07045 30.6281 6.14437C32.248 6.21829 33.82 6.71741 35.1865 7.5917L54.1076 19.7211C55.4729 20.5982 56.5839 21.8194 57.3293 23.2624C58.0747 24.7053 58.4281 26.3192 58.3543 27.9421L57.32 50.4067C57.2422 52.0263 56.7415 53.597 55.8679 54.9621C54.9943 56.3271 53.7784 57.4386 52.3416 58.1856Z" fill="#294564"/>
<path d="M75.665 74.4668V83.0332H111.073V74.4668H75.665Z" stroke="#535353" stroke-width="2" stroke-linecap="round" stroke-linejoin="round"/>
<path d="M106.796 37.1261H80.3448M107.33 70.9494H80.3448M75.665 37.1261V70.9494M111.073 70.4524V37.1261M115.483 83.8327L115.614 36.9955H117.085C117.085 36.9955 120.293 27.7595 118.427 26.5129C116.56 25.2663 103.458 27.629 91.5713 27.49C79.6846 27.351 71.6579 25.3547 69.5219 27.49C67.386 29.6253 70.5899 36.9955 70.5899 36.9955H72.7301L71.927 83.8327C58.9219 90.3311 65.826 93.6036 65.826 93.6036V104.389H70.7161V101.366H117.085V104.389H121.626L121.752 93.6036C127.214 90.925 115.483 83.8327 115.483 83.8327ZM111.073 83.0325H75.665V74.4661H111.073V83.0325Z" stroke="#535353" stroke-width="2" stroke-linecap="round" stroke-linejoin="round"/>
<path d="M111.073 74.4668H75.665V83.0332H111.073V74.4668Z" stroke="#535353" stroke-width="2" stroke-linecap="round" stroke-linejoin="round"/>
</svg>
