<svg width="516.000000" height="281.000000" viewBox="0 0 516 281" fill="none" xmlns="http://www.w3.org/2000/svg" xmlns:xlink="http://www.w3.org/1999/xlink">
	<desc>
			Created with Pixso.
	</desc>
	<defs/>
	<path id="Vector 105" d="M70.96 115.76C71.12 110.53 70.9 99.04 68.76 94.95C66.8 91.2 45.22 49.88 32.04 24.66C30.86 22.39 29.74 20.24 28.7 18.27C25.09 17.45 17.31 17.72 15.07 25.39C16.2 27.54 17.43 29.91 18.74 32.42C31.74 57.3 52.71 97.43 55.13 102.07C57.8 107.18 66.8 113.33 70.96 115.76ZM18.74 32.42C16.16 32.37 11.4 31.56 8.21 28.98C7.07 28.05 6.13 26.9 5.57 25.48C2.92 18.73 6.02 13.04 8.41 10.98C10.8 8.91 20.69 2.93 25.77 4.35C28.9 5.22 33.68 8.63 34.96 13.64C35.76 16.77 35.2 20.51 32.04 24.66M8.21 28.98C7.81 24.85 7.23 18 13.47 14.03C20.64 9.47 25.41 6.98 34.96 13.64" stroke="#FFFFFF" stroke-opacity="1.000000" stroke-width="2.000000"/>
	<path id="Vector 111" d="M445.27 215.45C448.99 212.77 456.87 206.51 458.58 202.85C460.15 199.49 477.41 162.48 487.95 139.89C488.9 137.86 489.8 135.94 490.62 134.17C489.28 131.22 484.95 125.94 478.41 128.47C477.52 130.4 476.53 132.52 475.48 134.77C465.08 157.05 448.31 192.99 446.37 197.15C444.24 201.73 444.74 211.26 445.27 215.45ZM475.48 134.77C474.14 132.95 472.17 129.19 472.27 125.6C472.31 124.32 472.61 123.05 473.3 121.91C476.58 116.47 482.19 115.6 484.9 116.17C487.61 116.73 497.03 120.43 498.75 124.72C499.81 127.36 499.98 132.5 497.17 136.06C495.43 138.28 492.52 139.88 487.95 139.89M472.27 125.6C474.93 123.13 479.38 119.08 485.47 121.31C492.45 123.87 496.73 125.87 497.17 136.06" stroke="#FFFFFF" stroke-opacity="1.000000" stroke-width="2.000000"/>
	<path id="Vector 106" d="M109.07 194.33L55.06 259.88L49 279C52.84 277.18 61.13 272.85 63.56 270.12C65.99 267.39 101.39 225.28 118.78 204.58M109.07 194.33C108.26 192.06 107.24 188.9 108.47 186.14C109.68 183.41 111.5 180 113.93 180C118.78 180 132.13 194.33 130.92 199.11C130.05 202.53 127.88 205.26 125.46 205.94C123.03 206.62 120.38 205.94 118.78 204.58C116.56 202.75 111.5 198.16 109.07 194.33ZM113.93 180C112.71 182.04 111.5 185.46 118.78 193.65C126.42 202.25 129.1 200.48 130.92 199.11" stroke="#FFFFFF" stroke-opacity="1.000000" stroke-width="2.000000"/>
	<path id="Vector 108" d="M187.28 205.74L234.99 169.1L242.19 156.88C239.24 157.53 232.82 159.2 230.71 160.7C228.6 162.2 197.46 185.62 182.15 197.15M187.28 205.74C187.48 207.43 187.7 209.77 186.41 211.48C185.15 213.17 183.35 215.23 181.67 214.85C178.3 214.09 171.29 202.1 172.88 199C174.02 196.78 175.95 195.25 177.74 195.16C179.53 195.07 181.26 195.96 182.15 197.15C183.41 198.76 186.2 202.72 187.28 205.74ZM181.67 214.85C182.83 213.63 184.2 211.47 180.44 204.68C176.49 197.55 174.36 198.35 172.88 199" stroke="#FFFFFF" stroke-opacity="1.000000" stroke-width="2.000000"/>
	<path id="Vector 112" d="M458.44 259.78L506.15 223.14L513.36 210.93C510.41 211.58 503.98 213.25 501.87 214.75C499.76 216.25 468.62 239.67 453.32 251.2M458.44 259.78C458.64 261.48 458.86 263.82 457.58 265.52C456.31 267.22 454.51 269.28 452.83 268.9C449.46 268.13 442.46 256.15 444.05 253.05C445.18 250.83 447.11 249.29 448.9 249.2C450.69 249.12 452.42 250.01 453.32 251.2C454.57 252.8 457.36 256.77 458.44 259.78ZM452.83 268.9C453.99 267.68 455.37 265.52 451.6 258.72C447.65 251.6 445.52 252.39 444.05 253.05" stroke="#FFFFFF" stroke-opacity="1.000000" stroke-width="2.000000"/>
	<path id="Vector 109" d="M233.31 212.65L303.66 223.47L320 219.64C317.03 217.65 310.34 213.52 307.34 212.94C304.33 212.36 258.83 204.9 236.46 201.25M233.31 212.65C232.03 214.21 230.21 216.31 227.7 216.61C225.21 216.91 221.98 217.06 220.93 215.31C218.83 211.8 223.35 196.01 227.3 194.84C230.12 193.99 233.02 194.38 234.56 195.84C236.1 197.3 236.75 199.51 236.46 201.25C236.12 203.63 235.01 209.26 233.31 212.65ZM220.93 215.31C222.92 215.3 225.9 214.71 228.63 205.94C231.49 196.73 229.07 195.56 227.3 194.84" stroke="#FFFFFF" stroke-opacity="1.000000" stroke-width="2.000000"/>
	<path id="Vector 107" d="M92.15 156.99C95.29 154.19 102.05 147.64 103.94 143.74C105.66 140.19 122.72 108.6 132.47 90.56C133.41 88.82 133.08 89.39 133.89 87.89C135.21 83.07 129.77 77.52 124.34 83.07C123.7 84.25 123.02 84.86 122.29 86.2C112.6 104.12 96.17 135.82 94.42 139.44C92.53 143.34 92.12 152.76 92.15 156.99ZM122.29 86.2C121.3 84.84 118.76 83.39 120.11 79.67C122.25 73.79 122.43 72.64 124.34 71.67C129.56 69.01 140.46 70.94 143.37 80.39C144.01 82.47 141.64 84.48 140.46 87.39C138.28 91.29 135.25 91.34 132.47 90.56M120.11 79.67C123.02 71.67 140.46 71.32 140.46 87.39" stroke="#FFFFFF" stroke-opacity="1.000000" stroke-width="2.000000"/>
	<path id="Vector 110" d="M422.03 270.02C420.95 266.38 418.19 258.34 415.73 255.31C413.49 252.54 394.22 226.48 383.22 211.58C382.15 210.14 382.49 210.64 381.58 209.4C378.15 206.47 371.52 208.78 373.97 215.35C374.69 216.33 374.93 217.12 375.75 218.23C386.68 233.02 406.27 258.61 408.56 261.44C411.02 264.47 418.56 268.43 422.03 270.02ZM375.75 218.23C374.26 218.51 372.09 220.03 369.57 217.5C365.59 213.5 364.72 212.91 364.66 210.98C364.49 205.69 370.25 197.52 379.09 198.77C381.04 199.05 381.77 201.76 383.69 203.83C386.04 207.11 384.92 209.61 383.22 211.58M369.57 217.5C364.15 212.05 370.56 197.67 383.69 203.83" stroke="#FFFFFF" stroke-opacity="1.000000" stroke-width="2.000000"/>
</svg>
