<svg width="200" height="281" viewBox="0 0 284 203" fill="none" xmlns="http://www.w3.org/2000/svg" xmlns:xlink="http://www.w3.org/1999/xlink">
	<desc>
			Created with Pixso.
	</desc>
	<defs/>
	<path id="Vector 62" d="M134.13 110.41C126.39 104.94 129.89 104.32 134.13 97.67L0.99 8.46L0.99 2.66L5.97 1C48.83 30.07 138.68 90 139.82 88.18C146.05 78.17 147.78 80.76 152.33 83.61C156.88 86.47 198.42 118.39 211.5 121.25C224.23 124.02 262.81 140.82 276.42 161.16C276.8 161.72 277.16 162.29 277.5 162.86C290.01 183.96 274.65 204.49 253.03 200.49C231.41 196.5 201.26 168 190.45 154.31C179.64 140.63 143.8 117.25 134.13 110.41Z" fill="#8699C3" fill-opacity="1.000000" fill-rule="nonzero"/>
	<path id="Vector 62" d="M134.13 110.41C143.8 117.25 179.64 140.63 190.45 154.31C201.26 168 231.41 196.5 253.03 200.49C274.65 204.49 290.01 183.96 277.5 162.86C277.16 162.29 276.8 161.72 276.42 161.16C262.81 140.82 224.23 124.02 211.5 121.25C198.42 118.39 156.88 86.47 152.33 83.61C147.78 80.76 146.05 78.17 139.82 88.18C138.68 90 48.83 30.07 5.97 1L0.99 2.66L0.99 8.46L134.13 97.67C129.89 104.32 126.39 104.94 134.13 110.41ZM253.03 200.49C255.5 200.3 257.13 197.53 243.93 187.95C227.43 175.98 200.83 161.16 211.5 145.19C221.07 130.87 257.04 157.97 266.69 162.86C276.42 167.8 276.78 161.72 276.42 161.16" stroke="#FFFFFF" stroke-opacity="1.000000" stroke-width="3.000000"/>
</svg>
