<svg width="307" height="186" viewBox="0 0 390 206" fill="none" xmlns="http://www.w3.org/2000/svg" xmlns:xlink="http://www.w3.org/1999/xlink">
	<desc>
			Created with Pixso.
	</desc>
	<defs/>
	<path id="Vector 63" d="M290.73 87.16L15.31 1.18C12.03 0.71 4.54 4.76 0.73 24.77L17.27 38.52L32.24 42.59L40.09 50.03L52.94 52.49L60.98 60.4L74.41 61.89L82.57 70.91L94.16 74.17L103.85 82.81L117.93 86.25L128.13 97.53L142.37 100.29L153.64 113.25L169.41 115.62L183.47 128.58L197.98 138.88L293.17 190.12C315.96 195.71 362.37 206.35 365.73 204.19C369.94 201.49 372.5 198.07 362.51 190.82C366.67 172.91 374.11 135.52 370.56 129.24C371.62 126.58 376.31 120.8 386.55 118.99C391.23 113.62 386.29 101.34 329.15 95.2L290.73 87.16ZM333.17 179.33C331.73 148.9 339.96 126.28 344.26 118.78C338.89 116.28 326.41 111.33 319.42 111.53C311.56 111.77 310.35 116.37 307.49 127.22C307.16 128.45 306.82 129.75 306.44 131.13C302.73 144.8 307.41 169.71 310.85 178.79C313.61 186.05 326.88 182.17 333.17 179.33Z" fill="#8699C3" fill-opacity="1.000000" fill-rule="evenodd"/>
	<path id="Vector 63" d="M15.31 1.18C12.03 0.71 4.54 4.76 0.73 24.77L17.27 38.52L32.24 42.59L40.09 50.03L52.94 52.49L60.98 60.4L74.41 61.89L82.57 70.91L94.16 74.17L103.85 82.81L117.93 86.25L128.13 97.53L142.37 100.29L153.64 113.25L169.41 115.62L183.47 128.58L197.98 138.88L293.17 190.12C315.96 195.71 362.37 206.35 365.73 204.19C369.94 201.49 372.5 198.07 362.51 190.82C366.67 172.91 374.11 135.52 370.56 129.24C371.62 126.58 376.31 120.8 386.55 118.99C391.23 113.62 386.29 101.34 329.15 95.2L290.73 87.16L15.31 1.18ZM290.73 87.16L267.26 134.86L293.17 190.12M333.17 179.33C326.88 182.17 313.61 186.05 310.85 178.79C307.41 169.71 302.73 144.8 306.44 131.13C306.82 129.75 307.16 128.45 307.49 127.22C310.35 116.37 311.56 111.77 319.42 111.53C326.41 111.33 338.89 116.28 344.26 118.78C339.96 126.28 331.73 148.9 333.17 179.33Z" stroke="#FFFFFF" stroke-opacity="1.000000" stroke-width="3.000000"/>
</svg>
