<svg width="570.000000" height="249.000000" viewBox="0 0 570 249" fill="none" xmlns="http://www.w3.org/2000/svg" xmlns:xlink="http://www.w3.org/1999/xlink">
	<desc>
			Created with Pixso.
	</desc>
	<defs/>
	<path id="Vector 118" d="M18.82 0L553.96 0C556.72 0 558.96 2.23 558.96 5L558.96 235.78C558.96 238.54 556.72 240.78 553.96 240.78L23.82 240.78C21.05 240.78 18.82 238.54 18.82 235.78L18.82 20.58C18.82 17.82 21.05 15.58 23.82 15.58L564 15.58C566.76 15.58 569 17.82 569 20.58L569 243C569 245.76 566.76 248 564 248L5 248C2.23 248 0 245.76 0 243L0 26.27" stroke="#FFFFFF" stroke-opacity="1.000000" stroke-width="1.000000" stroke-linecap="round"/>
</svg>
