<svg width="365.000000" height="119.000000" viewBox="0 0 365 119" fill="none" xmlns="http://www.w3.org/2000/svg" xmlns:xlink="http://www.w3.org/1999/xlink">
	<desc>
			Created with Pixso.
	</desc>
	<defs/>
	<path id="Vector 119" d="M12.53 0.5L353.07 0.5C355.84 0.5 358.07 2.73 358.07 5.5L358.07 110.06C358.07 112.82 355.84 115.06 353.07 115.06L17.53 115.06C14.77 115.06 12.53 112.82 12.53 110.06L12.53 12.91C12.53 10.15 14.77 7.91 17.53 7.91L359.5 7.91C362.26 7.91 364.5 10.15 364.5 12.91L364.5 113.5C364.5 116.26 362.26 118.5 359.5 118.5L5.5 118.5C2.73 118.5 0.5 116.26 0.5 113.5L0.5 13" stroke="#FFFFFF" stroke-opacity="1.000000" stroke-width="1.000000" stroke-linecap="round"/>
</svg>
