<svg width="200.000000" height="200.000000" viewBox="0 0 200 200" fill="none" xmlns="http://www.w3.org/2000/svg" xmlns:xlink="http://www.w3.org/1999/xlink">
	<desc>
			Created with Pixso.
	</desc>
	<defs>
		<clipPath id="clip100_64">
			<rect id="иконкиМаркетовЦвет-24 1" rx="10.000000" width="200.000000" height="200.000000" fill="white" fill-opacity="0"/>
		</clipPath>
	</defs>
	<rect id="иконкиМаркетовЦвет-24 1" rx="10.000000" width="200.000000" height="200.000000" fill="#FFFFFF" fill-opacity="0"/>
	<g clip-path="url(#clip100_64)">
		<path id="Vector" d="M-1.12 -1.23L200 -1.23L200 200L-1.12 200L-1.12 -1.23Z" fill="#005CFF" fill-opacity="1.000000" fill-rule="evenodd"/>
		<path id="Vector" d="M101.47 90.42L91.17 200L200.11 200L200.11 161.03L120.88 83.05L101.47 90.42Z" fill="#F81155" fill-opacity="1.000000" fill-rule="nonzero"/>
		<path id="Vector" d="M65.88 108.59C60.88 110.1 55.8 111.35 50.67 112.32C48.11 112.32 43.41 108.35 47.73 102.17C47.73 102.17 79.85 93.22 82.41 93.22C83.29 93.22 69.26 130.28 69.26 130.28C69.26 130.28 83.97 126.46 87.26 125.77C90.55 125.09 95.14 131.26 91.17 135.41C91.17 135.41 57.23 145.25 52.94 145.25C51.26 145.25 65.88 108.59 65.88 108.59Z" fill="#FFFFFF" fill-opacity="1.000000" fill-rule="nonzero"/>
		<path id="Vector" d="M167.35 90.6C169.52 96.84 171.37 103.2 172.91 109.63C172.91 112.26 169.03 117 162.91 112.61C162.91 112.61 152.05 75.44 152.05 72.82C152.05 71.92 187 86.36 187 86.36C187 86.36 183.53 72.1 182.79 68.79C182.05 65.48 188.38 60.67 192.38 64.7C192.38 64.7 201.67 100.06 201.67 104.32C201.7 106.26 167.35 90.6 167.35 90.6Z" fill="#FFFFFF" fill-opacity="1.000000" fill-rule="nonzero"/>
		<path id="Vector" d="M21.85 109.63C17.38 109.63 13.02 110.96 9.31 113.47C5.59 115.98 2.7 119.56 0.99 123.74C-0.73 127.92 -1.18 132.52 -0.31 136.96C0.56 141.4 2.7 145.48 5.86 148.68C9.01 151.89 13.03 154.07 17.41 154.95C21.78 155.84 26.32 155.39 30.44 153.66C34.57 151.92 38.09 148.99 40.57 145.23C43.05 141.47 44.38 137.04 44.38 132.52C44.38 129.51 43.8 126.54 42.67 123.76C41.54 120.98 39.88 118.46 37.79 116.34C35.7 114.21 33.21 112.52 30.48 111.37C27.74 110.22 24.81 109.63 21.85 109.63ZM21.85 144.89C19.43 144.89 17.07 144.17 15.07 142.81C13.06 141.45 11.5 139.52 10.57 137.25C9.65 134.99 9.41 132.5 9.88 130.1C10.35 127.7 11.51 125.49 13.22 123.76C14.92 122.03 17.1 120.85 19.47 120.37C21.83 119.89 24.29 120.14 26.52 121.08C28.75 122.01 30.66 123.6 32 125.64C33.34 127.67 34.05 130.07 34.05 132.52C34.05 135.8 32.77 138.95 30.48 141.27C28.19 143.59 25.09 144.89 21.85 144.89Z" fill="#FFFFFF" fill-opacity="1.000000" fill-rule="nonzero"/>
		<path id="Vector" d="M115.2 83.02C98.7 86.99 87.64 100.18 90.52 112.47C93.41 124.76 109.11 131.5 125.61 127.38C142.11 123.27 153.17 110.38 150.29 98.06C147.41 85.74 131.7 79.02 115.2 83.02ZM123.23 117.3C114.41 119.48 105.79 115.84 104.23 109.16C102.67 102.47 108.82 95.46 117.64 93.22C126.47 90.99 135.11 94.72 136.64 101.37C138.17 108.02 132.17 115.15 123.23 117.3Z" fill="#FFFFFF" fill-opacity="1.000000" fill-rule="nonzero"/>
	</g>
</svg>
