<svg width="200.000000" height="200.000000" viewBox="0 0 200 200" fill="none" xmlns="http://www.w3.org/2000/svg" xmlns:xlink="http://www.w3.org/1999/xlink">
	<desc>
			Created with Pixso.
	</desc>
	<defs>
		<clipPath id="clip100_61">
			<rect id="иконкиМаркетовЦвет-27 1" rx="10.000000" width="200.000000" height="200.000000" fill="white" fill-opacity="0"/>
		</clipPath>
		<linearGradient x1="15.235153" y1="184.188507" x2="181.235260" y2="19.689728" id="paint_linear_690_804_0" gradientUnits="userSpaceOnUse">
			<stop stop-color="#26A376"/>
			<stop offset="0.040000" stop-color="#2E927A"/>
			<stop offset="0.130000" stop-color="#416C84"/>
			<stop offset="0.220000" stop-color="#504E8B"/>
			<stop offset="0.310000" stop-color="#5B3891"/>
			<stop offset="0.400000" stop-color="#612B94"/>
			<stop offset="0.480000" stop-color="#632795"/>
			<stop offset="0.580000" stop-color="#672A91"/>
			<stop offset="0.660000" stop-color="#723486"/>
			<stop offset="0.750000" stop-color="#854474"/>
			<stop offset="0.830000" stop-color="#9F5A5A"/>
			<stop offset="0.910000" stop-color="#C17739"/>
			<stop offset="0.990000" stop-color="#EA9911"/>
			<stop offset="1.000000" stop-color="#EE9D0D"/>
		</linearGradient>
	</defs>
	<rect id="иконкиМаркетовЦвет-27 1" rx="10.000000" width="200.000000" height="200.000000" fill="#FFFFFF" fill-opacity="0"/>
	<g clip-path="url(#clip100_61)">
		<path id="Vector" d="M0.41 0L200 0L200 200L0.41 200L0.41 0Z" fill="url(#paint_linear_690_804_0)" fill-opacity="1.000000" fill-rule="evenodd"/>
		<path id="Vector" d="M142.64 70.91L133.58 77.35C134.32 94.45 119.14 109.96 101.23 109.96C96.09 109.97 91.02 108.73 86.45 106.34C81.88 103.95 77.94 100.48 74.97 96.23C71.99 91.98 70.06 87.06 69.35 81.9C68.63 76.73 69.15 71.47 70.85 66.55C72.55 61.63 75.4 57.19 79.14 53.62C82.88 50.04 87.41 47.43 92.36 46C97.3 44.57 102.51 44.36 107.55 45.39C112.59 46.42 117.31 48.67 121.32 51.93L128.29 44.75C120.99 38.52 111.82 35 102.29 34.78C92.75 34.55 83.43 37.64 75.86 43.52C68.29 49.4 62.92 57.72 60.64 67.11C58.37 76.51 59.32 86.41 63.35 95.18C67.37 103.95 74.23 111.06 82.78 115.34C91.33 119.62 101.07 120.82 110.38 118.72C119.69 116.63 128.02 111.38 133.98 103.84C139.95 96.29 143.2 86.91 143.2 77.23C143.2 75.56 142.85 72.73 142.64 70.91Z" fill="#FFFFFF" fill-opacity="1.000000" fill-rule="nonzero"/>
		<path id="Vector" d="M139.44 59.99L131.61 66.28L101.47 89.91L86.11 79.83L86.11 66.49L101.47 77.35L127.14 58.44L134.52 51.93C136.69 54.25 138.37 56.99 139.44 59.99Z" fill="#FFFFFF" fill-opacity="1.000000" fill-rule="nonzero"/>
		<path id="Vector" d="M44.97 136.72L47.05 136.72L47.05 151.64L45.02 151.64L45.02 140.45L45.02 141.1L41.35 149.49L39.91 149.49L36.23 141.31L36.23 140.45L36.23 151.55L34.2 151.55L34.2 136.63L36.17 136.63L40.55 146.42L44.97 136.72Z" fill="#FFFFFF" fill-opacity="1.000000" fill-rule="nonzero"/>
		<path id="Vector" d="M50.79 136.72L52.94 136.72L52.94 151.64L50.85 151.64L50.79 136.72ZM51.82 136.72L60.38 136.72L60.38 138.72L51.82 138.72L51.82 136.72ZM51.82 143.19L59.23 143.19L59.23 145.19L51.82 145.19L51.82 143.19ZM51.82 149.58L60.38 149.58L60.38 151.55L51.82 151.55L51.82 149.58Z" fill="#FFFFFF" fill-opacity="1.000000" fill-rule="nonzero"/>
		<path id="Vector" d="M63.52 136.72L65.61 136.72L65.61 151.64L63.52 151.64L63.52 136.72ZM64.52 136.72L71.88 136.72L71.88 138.72L64.52 138.72L64.52 136.72Z" fill="#FFFFFF" fill-opacity="1.000000" fill-rule="nonzero"/>
		<path id="Vector" d="M77.64 136.72L79.41 136.72L84.88 151.64L82.64 151.64L78.49 139.7L74.38 151.64L72.11 151.64L77.64 136.72ZM74.7 146.33L82.55 146.33L82.55 148.29L74.67 148.29L74.7 146.33Z" fill="#FFFFFF" fill-opacity="1.000000" fill-rule="nonzero"/>
		<path id="Vector" d="M103.85 136.72L105.88 136.72L105.88 151.64L103.85 151.64L103.85 140.45L103.85 141.1L100.17 149.49L98.73 149.49L95.05 141.31L95.05 140.45L95.05 151.55L93 151.55L93 136.63L94.97 136.63L99.35 146.42L103.85 136.72Z" fill="#FFFFFF" fill-opacity="1.000000" fill-rule="nonzero"/>
		<path id="Vector" d="M113.52 136.72L115.32 136.72L120.82 151.64L118.55 151.64L114.44 139.7L110.29 151.64L108.05 151.64L113.52 136.72ZM110.58 146.33L118.41 146.33L118.41 148.29L110.58 148.29L110.58 146.33Z" fill="#FFFFFF" fill-opacity="1.000000" fill-rule="nonzero"/>
		<path id="Vector" d="M123.23 136.72L125.32 136.72L125.32 151.64L123.23 151.64L123.23 136.72ZM124.32 143.82L129.08 143.82C129.5 143.83 129.92 143.73 130.29 143.52C130.62 143.29 130.88 142.97 131.05 142.6C131.26 142.19 131.36 141.74 131.35 141.28C131.36 140.82 131.26 140.36 131.05 139.94C130.88 139.57 130.62 139.25 130.29 139.02C129.92 138.81 129.5 138.71 129.08 138.72L124.32 138.72L124.32 136.72L129.02 136.72C129.83 136.71 130.63 136.91 131.35 137.29C132.01 137.66 132.56 138.22 132.94 138.9C133.33 139.63 133.52 140.45 133.5 141.28C133.52 142.11 133.33 142.92 132.94 143.64C132.56 144.32 132.01 144.87 131.35 145.25C130.63 145.62 129.83 145.81 129.02 145.79L124.32 145.79L124.32 143.82Z" fill="#FFFFFF" fill-opacity="1.000000" fill-rule="nonzero"/>
		<path id="Vector" d="M136.58 136.72L138.67 136.72L138.67 151.64L136.58 151.64L136.58 136.72ZM137.61 143.19L142.26 143.19L142.26 145.19L137.61 145.19L137.61 143.19ZM140.55 145.01L142.41 143.97L148.29 151.55L145.35 151.55L140.55 145.01ZM140.55 143.4L144.88 136.72L147.5 136.72L141.61 145.25L140.55 143.4Z" fill="#FFFFFF" fill-opacity="1.000000" fill-rule="nonzero"/>
		<path id="Vector" d="M150.44 136.72L152.52 136.72L152.52 151.64L150.44 151.64L150.44 136.72ZM151.44 136.72L160 136.72L160 138.72L151.44 138.72L151.44 136.72ZM151.44 143.19L158.82 143.19L158.82 145.19L151.44 145.19L151.44 143.19ZM151.44 149.58L160 149.58L160 151.55L151.44 151.55L151.44 149.58Z" fill="#FFFFFF" fill-opacity="1.000000" fill-rule="nonzero"/>
		<path id="Vector" d="M161.94 136.72L172.44 136.72L172.44 138.72L161.94 138.72L161.94 136.72ZM166.14 137.94L168.23 137.94L168.23 151.55L166.14 151.55L166.14 137.94Z" fill="#FFFFFF" fill-opacity="1.000000" fill-rule="nonzero"/>
	</g>
</svg>
