<svg width="200.000000" height="200.000000" viewBox="0 0 200 200" fill="none" xmlns="http://www.w3.org/2000/svg" xmlns:xlink="http://www.w3.org/1999/xlink">
	<desc>
			Created with Pixso.
	</desc>
	<defs>
		<clipPath id="clip100_63">
			<rect id="иконкиМаркетовЦвет-25 1" rx="10.000000" width="200.000000" height="200.000000" fill="white" fill-opacity="0"/>
		</clipPath>
	</defs>
	<rect id="иконкиМаркетовЦвет-25 1" rx="10.000000" width="200.000000" height="200.000000" fill="#FFFFFF" fill-opacity="0"/>
	<g clip-path="url(#clip100_63)">
		<path id="Vector" d="M0.41 0L200 0L200 200L0.41 200L0.41 0Z" fill="#85118C" fill-opacity="1.000000" fill-rule="evenodd"/>
		<path id="Vector" d="M68.49 67.81L74.64 67.81L87.73 117.6L99.02 67.81L108.35 67.81L92.76 131.26L83.61 131.26L71.85 86.87L59.52 131.26L50.38 131.26L34.79 67.75L44.11 67.75L55.41 117.54L68.49 67.81Z" fill="#FFFFFF" fill-opacity="1.000000" fill-rule="nonzero"/>
		<path id="Vector" d="M118.73 67.81L127.55 67.81L127.55 131.26L118.73 131.26L118.73 67.81ZM124.02 123.09L141.32 123.09C144.83 123.38 148.33 122.47 151.26 120.49C152.28 119.62 153.08 118.52 153.62 117.29C154.16 116.05 154.42 114.71 154.38 113.36C154.43 111.45 154.05 109.55 153.26 107.81C152.5 106.26 151.26 105.01 149.73 104.23C147.79 103.33 145.66 102.9 143.52 102.98L124.02 102.98L124.02 94.72L143.52 94.72C146.21 94.94 148.89 94.14 151.02 92.48C151.9 91.58 152.58 90.5 153.01 89.32C153.45 88.14 153.63 86.88 153.55 85.62C153.64 84.28 153.42 82.95 152.91 81.71C152.4 80.48 151.61 79.39 150.61 78.52C148.16 76.75 145.17 75.91 142.17 76.13L124.02 76.13L124.02 67.81L143.91 67.81C147.48 67.68 151.03 68.4 154.29 69.89C156.94 71.16 159.12 73.25 160.52 75.86C161.96 78.7 162.67 81.86 162.58 85.05C162.6 87.16 162.17 89.26 161.32 91.19C160.43 93.12 159.1 94.8 157.44 96.09C155.51 97.5 153.28 98.43 150.94 98.8C153.36 99.08 155.67 99.98 157.64 101.43C159.49 102.84 160.97 104.7 161.94 106.83C162.94 109.01 163.46 111.4 163.44 113.81C163.5 117 162.71 120.14 161.14 122.91C159.58 125.51 157.3 127.58 154.58 128.87C151.49 130.35 148.09 131.08 144.67 130.99L124.08 130.99L124.02 123.09Z" fill="#FFFFFF" fill-opacity="1.000000" fill-rule="nonzero"/>
	</g>
</svg>
