<svg width="426.000000" height="798.000000" viewBox="0 0 426 798" fill="none" xmlns="http://www.w3.org/2000/svg" xmlns:xlink="http://www.w3.org/1999/xlink">
	<desc>
			Created with Pixso.
	</desc>
	<defs/>
	<rect id="Компоненты 1" width="426.000061" height="797.999023" fill="#FFFFFF" fill-opacity="0"/>
	<path id="Vector 54" d="M125 36L426 113L426 405.5L125 36Z" fill="#FFEFA6" fill-opacity="1.000000" fill-rule="evenodd"/>
	<path id="Ellipse 59" d="M134.08 778.94C134.08 789.46 113.11 797.99 70.92 797.99C28.73 797.99 7.33 789.46 7.33 778.94C7.33 768.41 28.73 748.69 70.92 748.69C113.11 748.69 134.08 768.41 134.08 778.94Z" fill="#8699C3" fill-opacity="1.000000" fill-rule="nonzero"/>
	<path id="Ellipse 59" d="M70.92 797.99C113.11 797.99 134.08 789.46 134.08 778.94C134.08 768.41 113.11 748.69 70.92 748.69C28.73 748.69 7.33 768.41 7.33 778.94C7.33 789.46 28.73 797.99 70.92 797.99ZM117.7 790.51Q100.98 796 70.92 795.99Q40.82 796 23.92 790.51Q10.3 786.09 9.4 779.83Q9.33 779.39 9.33 778.94Q9.33 775.47 12.9 771.02Q17 765.89 24.32 761.59Q42.86 750.69 70.92 750.69Q98.96 750.69 117.3 761.59Q124.53 765.88 128.57 771.01Q132.08 775.45 132.08 778.94Q132.08 779.41 132.01 779.88Q131.08 786.12 117.7 790.51Z" fill="#FFFFFF" fill-opacity="1.000000" fill-rule="evenodd"/>
	<path id="Vector 55" d="M10.31 396.82L63.87 769.65C70 774.47 76.63 771.66 79.19 769.65L25.62 396.82L71.5 35.43L59.5 14.56L10.31 396.82Z" fill="#8699C3" fill-opacity="1.000000" fill-rule="nonzero"/>
	<path id="Vector 55" d="M10.31 396.82L59.5 14.56L71.5 35.43L25.62 396.82L79.19 769.65C76.63 771.66 70 774.47 63.87 769.65L10.31 396.82Z" stroke="#FFFFFF" stroke-opacity="1.000000" stroke-width="2.000000"/>
	<rect id="Rectangle 123" x="54.000000" y="12.974609" rx="5.000000" width="31.329859" height="33.132496" transform="rotate(-24.4645 54.000000 12.974609)" fill="#8699C3" fill-opacity="1.000000"/>
	<rect id="Rectangle 123" x="55.344727" y="13.460938" rx="5.000000" width="29.329859" height="31.132496" transform="rotate(-24.4645 55.344727 13.460938)" stroke="#FFFFFF" stroke-opacity="1.000000" stroke-width="2.000000"/>
	<path id="Vector 56" d="M133.1 26.81L98.04 6.77C82.63 -0.61 67.64 19.56 83.85 30.17L118.91 50.21C137.49 47.87 136.11 33.64 133.1 26.81Z" fill="#8699C3" fill-opacity="1.000000" fill-rule="nonzero"/>
	<path id="Vector 56" d="M133.1 26.81C136.11 33.64 137.49 47.87 118.91 50.21L83.85 30.17C67.64 19.56 82.63 -0.61 98.04 6.77L133.1 26.81Z" stroke="#FFFFFF" stroke-opacity="1.000000" stroke-width="2.000000"/>
	<path id="Vector 57" d="M126.87 24.2C142.93 10.82 181.58 16.31 197.85 20.25C175.61 44.11 158.98 74.77 153.64 104.3C119.77 86.49 112.36 58.58 112.89 46.85C118.62 37.06 119.85 33.11 126.87 24.2Z" fill="#8699C3" fill-opacity="1.000000" fill-rule="nonzero"/>
	<path id="Vector 57" d="M126.87 24.2C119.85 33.11 118.62 37.06 112.89 46.85C112.36 58.58 119.77 86.49 153.64 104.3C158.98 74.77 175.61 44.11 197.85 20.25C181.58 16.31 142.93 10.82 126.87 24.2Z" stroke="#FFFFFF" stroke-opacity="1.000000" stroke-width="2.000000"/>
	<rect id="Rectangle 124" y="392.240234" rx="5.000000" width="28.216539" height="30.322149" transform="rotate(-24.4645 0.000000 392.240234)" fill="#8699C3" fill-opacity="1.000000"/>
	<rect id="Rectangle 124" x="1.344727" y="392.726562" rx="5.000000" width="26.216539" height="28.322149" transform="rotate(-24.4645 1.344727 392.726562)" stroke="#FFFFFF" stroke-opacity="1.000000" stroke-width="2.000000"/>
</svg>
