<svg width="483" height="715" viewBox="0 0 483 715" fill="none" xmlns="http://www.w3.org/2000/svg">
<path d="M188.5 714H483L147.977 54L132 61.1015L188.5 714Z" fill="#FFEFA6"/>
<path d="M142.747 695.244C142.747 697.505 141.631 699.757 139.155 701.907C136.668 704.067 132.866 706.068 127.676 707.77C117.302 711.172 101.631 713.302 80.5863 713.302C59.5424 713.302 43.763 711.172 33.2806 707.769C28.0363 706.066 24.1793 704.064 21.6518 701.902C19.1347 699.749 17.999 697.498 17.999 695.244C17.999 692.929 19.1912 689.939 21.7823 686.703C24.3578 683.486 28.2512 680.11 33.4786 677.037C43.9281 670.894 59.6452 666 80.5863 666C101.527 666 117.136 670.894 127.477 677.035C132.65 680.107 136.49 683.482 139.026 686.697C141.576 689.931 142.747 692.923 142.747 695.244Z" fill="#8699C3" stroke="white" stroke-width="2"/>
<path d="M3.49902 341L73.4988 686C79.6242 690.825 86.2602 688.011 88.8124 686L18.8127 341L109.501 34.4331L97.5007 13.5605L3.49902 341Z" fill="#8699C3" stroke="white" stroke-width="2"/>
<rect x="1.1432" y="-0.859433" width="29.3299" height="31.1325" rx="4" transform="matrix(0.151561 -0.988448 0.991643 0.129015 85.8212 31.3482)" fill="#8699C3" stroke="white" stroke-width="2"/>
<path d="M148.033 49.1709L131.289 12.4271C123.094 -2.56709 99.1444 5.044 106.102 23.1252L122.846 59.869C139.297 68.8289 146.492 56.4702 148.033 49.1709Z" fill="#8699C3" stroke="white" stroke-width="2"/>
<path d="M146.722 47.2188C167.611 46.2786 184.461 55.9449 200.441 93.1628C164.575 95.2076 141.518 103.018 115.166 126.079C98.9624 91.3996 114.374 65.8149 121.89 56.798C132.381 52.4678 135.747 50.0663 146.722 47.2188Z" fill="#8699C3" stroke="white" stroke-width="2"/>
<rect x="0.99925" y="1.02325" width="26.2165" height="28.3221" rx="4" transform="matrix(0.99973 0.0232498 -0.000479844 1 0.0154095 325.977)" fill="#8699C3" stroke="white" stroke-width="2"/>
</svg>
