<svg width="1059.000000" height="735.000000" viewBox="0 0 1059 735" fill="none" xmlns="http://www.w3.org/2000/svg" xmlns:xlink="http://www.w3.org/1999/xlink">
	<desc>
			Created with Pixso.
	</desc>
	<defs/>
	<rect id="Компоненты 1" width="1059.000000" height="735.000000" fill="#FFFFFF" fill-opacity="0"/>
	<path id="Vector 54" d="M229 64.5L1059 735L466.83 735L229 64.5Z" fill="#FFEFA6" fill-opacity="1.000000" fill-rule="evenodd"/>
	<path id="Ellipse 59" d="M173.5 687C173.5 699.7 148.92 710 99.5 710C50.07 710 25 699.7 25 687C25 674.29 50.07 650.5 99.5 650.5C148.92 650.5 173.5 674.29 173.5 687Z" fill="#8699C3" fill-opacity="1.000000" fill-rule="nonzero"/>
	<path id="Ellipse 59" d="M99.5 710C148.92 710 173.5 699.7 173.5 687C173.5 674.29 148.92 650.5 99.5 650.5C50.07 650.5 25 674.29 25 687C25 699.7 50.07 710 99.5 710ZM154.39 701.36Q134.76 708 99.5 708Q64.18 708 44.34 701.36Q28.33 696.01 27.1 688.29Q27 687.65 27 687Q27 682.65 31.26 677.16Q36.12 670.92 44.74 665.69Q66.54 652.5 99.5 652.5Q132.42 652.5 153.99 665.69Q162.51 670.9 167.3 677.15Q171.5 682.63 171.5 687Q171.5 687.69 171.38 688.36Q170.12 696.05 154.39 701.36Z" fill="#FFFFFF" fill-opacity="1.000000" fill-rule="evenodd"/>
	<path id="Vector 55" d="M12 345.56L91.24 675.78C98.41 681.6 106.19 678.21 109.18 675.78L29.94 345.56L166 68.34L158.52 51L12 345.56Z" fill="#8699C3" fill-opacity="1.000000" fill-rule="nonzero"/>
	<path id="Vector 55" d="M12 345.56L158.52 51L166 68.34L29.94 345.56L109.18 675.78C106.19 678.21 98.41 681.6 91.24 675.78L12 345.56Z" stroke="#FFFFFF" stroke-opacity="1.000000" stroke-width="2.000000"/>
	<rect id="Rectangle 123" x="152.162598" y="37.914062" rx="5.000000" width="36.898277" height="39.768040" transform="rotate(-25.1107 152.162598 37.914062)" fill="#8699C3" fill-opacity="1.000000"/>
	<rect id="Rectangle 123" x="153.492447" y="38.396484" rx="5.000000" width="34.898277" height="37.768040" transform="rotate(-25.1107 153.492447 38.396484)" stroke="#FFFFFF" stroke-opacity="1.000000" stroke-width="2.000000"/>
	<path id="Vector 56" d="M240.53 51.91L212.84 13.12C199.97 -2.36 174.03 12.73 186.17 32.15L213.86 70.95C234.9 77.22 240.41 60.87 240.53 51.91Z" fill="#8699C3" fill-opacity="1.000000" fill-rule="nonzero"/>
	<path id="Vector 56" d="M240.53 51.91C240.41 60.87 234.9 77.22 213.86 70.95L186.17 32.15C174.03 12.73 199.97 -2.36 212.84 13.12L240.53 51.91Z" stroke="#FFFFFF" stroke-opacity="1.000000" stroke-width="2.000000"/>
	<path id="Vector 57" d="M239.51 51.46C263.49 45.13 301.35 70.85 316.43 83.44C280.42 97.98 246.76 122.78 225.58 152.13C199.24 115.47 206.12 81.38 212.85 68.91C224.05 61.21 227.42 57.55 239.51 51.46Z" fill="#8699C3" fill-opacity="1.000000" fill-rule="nonzero"/>
	<path id="Vector 57" d="M239.51 51.46C227.42 57.55 224.05 61.21 212.85 68.91C206.12 81.38 199.24 115.47 225.58 152.13C246.76 122.78 280.42 97.98 316.43 83.44C301.35 70.85 263.49 45.13 239.51 51.46Z" stroke="#FFFFFF" stroke-opacity="1.000000" stroke-width="2.000000"/>
	<rect id="Rectangle 124" y="336.101562" rx="5.000000" width="33.231613" height="36.394859" transform="rotate(-25.1107 0.000000 336.101562)" fill="#8699C3" fill-opacity="1.000000"/>
	<rect id="Rectangle 124" x="1.329858" y="336.583984" rx="5.000000" width="31.231613" height="34.394859" transform="rotate(-25.1107 1.329858 336.583984)" stroke="#FFFFFF" stroke-opacity="1.000000" stroke-width="2.000000"/>
</svg>
