<svg width="181" height="798" viewBox="0 0 181 798" fill="none" xmlns="http://www.w3.org/2000/svg">
<path d="M129.087 778.941C129.087 781.203 127.97 783.454 125.495 785.604C123.008 787.764 119.205 789.765 114.016 791.467C103.642 794.869 87.9706 796.999 66.9262 796.999C45.8823 796.999 30.1028 794.869 19.6204 791.466C14.3761 789.763 10.5191 787.762 7.9916 785.599C5.47457 783.446 4.33887 781.195 4.33887 778.941C4.33887 776.626 5.53106 773.636 8.12215 770.4C10.6977 767.184 14.5911 763.807 19.8184 760.734C30.2679 754.591 45.985 749.697 66.9262 749.697C87.8673 749.697 103.476 754.591 113.817 760.732C118.99 763.804 122.83 767.179 125.366 770.394C127.916 773.628 129.087 776.62 129.087 778.941Z" fill="#8699C3" stroke="white" stroke-width="2"/>
<path d="M6.31543 396.823L59.8788 769.65C66.0043 774.475 72.6402 771.66 75.1925 769.65L21.6291 396.823L67.5012 35.4351L55.5012 14.5625L6.31543 396.823Z" fill="#8699C3" stroke="white" stroke-width="2"/>
<rect x="1.34497" y="0.486423" width="29.3299" height="31.1325" rx="4" transform="matrix(0.910218 -0.41413 0.434748 0.900552 49.9103 13.58)" fill="#8699C3" stroke="white" stroke-width="2"/>
<path d="M123.377 45.6733L101.8 11.5432C91.6445 -2.19949 68.9505 8.5928 78.2989 25.5619L99.8763 59.6921C117.392 66.3353 122.842 53.1143 123.377 45.6733Z" fill="#8699C3" stroke="white" stroke-width="2"/>
<path d="M118.002 35.6617C138.574 31.9148 157.759 45.8547 175.001 71.5C139.259 77.3551 118.002 88.0008 101.903 118.567C77.0012 92.5015 88.456 58.4476 94.6886 48.5C104.5 42.7956 107.511 39.9622 118.002 35.6617Z" fill="#8699C3" stroke="white" stroke-width="2"/>
<rect x="0.964439" y="1.05612" width="26.2165" height="28.3221" rx="4" transform="matrix(0.998391 0.0567002 -0.0339521 0.999424 1.89971 384.044)" fill="#8699C3" stroke="white" stroke-width="2"/>
</svg>
